{"accessors":[{"bufferView":2,"componentType":5126,"count":448,"max":[0.9700999855995178,0.9700999855995178,0.9693400263786316],"min":[-0.9700999855995178,-0.9700999855995178,-0.9693400263786316],"type":"VEC3"},{"bufferView":2,"byteOffset":5376,"componentType":5126,"count":448,"max":[0.9711939096450806,0.9707931876182556,0.9831429719924927],"min":[-0.9711939096450806,-0.9707931876182556,-0.9831429719924927],"type":"VEC3"},{"bufferView":3,"componentType":5126,"count":448,"max":[0.9917629361152649,0.9448748230934143,0.9998661875724792,1],"min":[-0.9917678833007812,-0.94487464427948,-1,1],"type":"VEC4"},{"bufferView":1,"componentType":5126,"count":448,"max":[0.9818999767303467,0.9854900240898132],"min":[0.014139999635517597,0.019039999693632126],"type":"VEC2"},{"bufferView":0,"componentType":5125,"count":1872,"max":[447],"min":[0],"type":"SCALAR"},{"bufferView":2,"byteOffset":10752,"componentType":5126,"count":496,"max":[0.9700999855995178,0.9700999855995178,0.9693400263786316],"min":[-0.9700999855995178,-0.9700999855995178,-0.9693400263786316],"type":"VEC3"},{"bufferView":2,"byteOffset":16704,"componentType":5126,"count":496,"max":[1,1,1],"min":[-1,-1,-1],"type":"VEC3"},{"bufferView":3,"byteOffset":7168,"componentType":5126,"count":496,"max":[0.9999027848243713,0.9441195130348206,0.9998906254768372,1],"min":[-1,-0.9441225528717041,-1,1],"type":"VEC4"},{"bufferView":1,"byteOffset":3584,"componentType":5126,"count":496,"max":[0.9884799718856812,0.9924399852752686],"min":[0.0075599998235702515,0.01181000005453825],"type":"VEC2"},{"bufferView":0,"byteOffset":7488,"componentType":5125,"count":1680,"max":[495],"min":[0],"type":"SCALAR"}],"asset":{"extras":{"author":"afurokn (https://sketchfab.com/afurokn)","license":"CC-BY-4.0 (http://creativecommons.org/licenses/by/4.0/)","source":"https://sketchfab.com/3d-models/basketball-2343abdae7674f46ad85071858db93c6","title":"Basketball"},"generator":"Sketchfab-6.33.0","version":"2.0"},"bufferViews":[{"buffer":0,"byteLength":14208,"byteOffset":0,"name":"floatBufferViews","target":34963},{"buffer":0,"byteLength":7552,"byteOffset":14208,"byteStride":8,"name":"floatBufferViews","target":34962},{"buffer":0,"byteLength":22656,"byteOffset":21760,"byteStride":12,"name":"floatBufferViews","target":34962},{"buffer":0,"byteLength":15104,"byteOffset":44416,"byteStride":16,"name":"floatBufferViews","target":34962}],"buffers":[{"byteLength":59520,"uri":"data:application/octet-stream;base64,"}],"materials":[{"doubleSided":true,"emissiveFactor":[0,0,0],"name":"Material","pbrMetallicRoughness":{"baseColorFactor":[0.8103699510436352,0.19837352793584132,0.04772903353533461,1],"metallicFactor":0.3231707317073171,"roughnessFactor":0.5670731707317074}},{"doubleSided":true,"emissiveFactor":[0,0,0],"name":"Material.001","pbrMetallicRoughness":{"baseColorFactor":[0.0031277375280253797,0.009370763590102475,0.01101123050028984,1],"metallicFactor":0.18902439024390244,"roughnessFactor":0.45121951219512196}}],"meshes":[{"name":"Basketball_0","primitives":[{"attributes":{"NORMAL":1,"POSITION":0,"TANGENT":2,"TEXCOORD_0":3},"indices":4,"material":0,"mode":4}]},{"name":"Basketball_1","primitives":[{"attributes":{"NORMAL":6,"POSITION":5,"TANGENT":7,"TEXCOORD_0":8},"indices":9,"material":1,"mode":4}]}],"nodes":[{"children":[1],"name":"RootNode (gltf orientation matrix)","rotation":[-0.7071067811865475,0,0,0.7071067811865476]},{"children":[2],"name":"RootNode (model correction matrix)"},{"children":[3],"name":"Root"},{"children":[4,5],"name":"Basketball"},{"mesh":0,"name":"Basketball_0"},{"mesh":1,"name":"Basketball_1"}],"scene":0,"scenes":[{"name":"OSG_Scene","nodes":[0]}]}